# xmcd
#
# Track frame offsets: 
#        150
#        13202
#        24710
#        37347
#        50982
#        65475
#        78262
#        88280
#        101770
#        115545
#        128020
#        137937
#        150037
#        163097
#        176172
#        188570
#        200330
#        211375
#        223930
#        236482
#        248005
#        259350
#
# Disc length: 3614 seconds
#
# Revision: 0
# Processed by: cddbd v1.4PL0 Copyright (c) Steve Scherf et al.
# Submitted via: ExactAudioCopy v0.95a3
#
DISCID=430e1c16
DTITLE=John Lee Hooker - On Vee-Jay 1955-1958
DYEAR=1900
DGENRE=Blues
TTITLE0=Unfriendly woman aka Stop now
TTITLE1=Wheel an deal
TTITLE2=Mambo chillun
TTITLE3=Time is marching
TTITLE4=I'm so worried baby
TTITLE5=Baby Lee
TTITLE6=Dimples
TTITLE7=Every night
TTITLE8=The road is so rough aka When I started hoboing
TTITLE9=Trouble blues
TTITLE10=Stop talking
TTITLE11=Everybody's rockin'
TTITLE12=I'm so excited
TTITLE13=I see you when you're weak
TTITLE14=Crawlin' black spider aka Mean old snake
TTITLE15=Little wheel
TTITLE16=Little fine woman
TTITLE17=Rosie Mae aka Nothing but trouble
TTITLE18=You can lead my baby aka Lead me on
TTITLE19=I love you honey
TTITLE20=You've taken my woman
TTITLE21=Mama you got a daughter
EXTD=
EXTT0=
EXTT1=
EXTT2=
EXTT3=
EXTT4=
EXTT5=
EXTT6=
EXTT7=
EXTT8=
EXTT9=
EXTT10=
EXTT11=
EXTT12=
EXTT13=
EXTT14=
EXTT15=
EXTT16=
EXTT17=
EXTT18=
EXTT19=
EXTT20=
EXTT21=
PLAYORDER=
